<svg viewBox="0 0 1024 1024" xmlns="http://www.w3.org/2000/svg"><path d="m880 112h-736c-17.7 0-32 14.3-32 32v736c0 17.7 14.3 32 32 32h736c17.7 0 32-14.3 32-32v-736c0-17.7-14.3-32-32-32zm-112 205.7-40.8 39.1c-3.6 2.7-5.3 7.1-4.6 11.4v287.7c-.7 4.4 1 8.8 4.6 11.4l40 39.1v8.7h-200.8v-8.3l41.3-40.1c4.1-4.1 4.1-5.3 4.1-11.4v-232.8l-115 291.6h-15.5l-133.8-291.6v195.5c-1.2 8.2 1.7 16.5 7.5 22.4l53.8 65.1v8.7h-152.8v-8.7l53.8-65.1a26.1 26.1 0 0 0 7-22.4v-226c.7-6.3-1.7-12.4-6.5-16.7l-47.8-57.6v-8.7h148.5l114.6 251.5 100.9-251.3h141.5z"/></svg>